<?xml version="1.0" encoding="UTF-8"?>
<svg id="Layer_2" data-name="Layer 2" xmlns="http://www.w3.org/2000/svg" viewBox="0 0 256 256">
  <defs>
    <style>
      .cls-1, .cls-2 {
        fill: #2493ef;
      }

      .cls-2, .cls-3, .cls-4, .cls-5 {
        fill-rule: evenodd;
      }

      .cls-3 {
        fill: #5cbb2a;
      }

      .cls-4 {
        fill: #ee4123;
      }

      .cls-5 {
        fill: #ffc20e;
      }
    </style>
  </defs>
  <g id="Layer_1-2" data-name="Layer 1">
    <g>
      <g>
        <path id="Fill-1-Copy" class="cls-2" d="m113.06,71.9c-.93-.53-1.99-1.03-3.2-1.52-5.34-2.13-11.25-3.19-17.74-3.19-11.1,0-19.97,3.27-26.61,9.82-6.65,6.55-9.97,14.4-9.97,23.55v81.92c0,1.6.76,2.9,2.28,3.91,1.52,1.01,3.43,1.52,5.73,1.52s4.29-.5,5.97-1.52c1.67-1.01,2.51-2.32,2.51-3.91v-57.81h17.58c1.36,0,2.46-.61,3.3-1.84.84-1.22,1.26-2.69,1.26-4.39s-.42-3.17-1.26-4.39c-.84-1.22-1.94-1.84-3.3-1.84h-17.58v-12.46c0-5.32,1.73-9.69,5.18-13.1,3.45-3.41,8.48-5.11,15.07-5.11,2.68,0,5.1.28,7.28.82,2.31-5.58,7.4-9.66,13.5-10.48"/>
        <path id="Fill-3-Copy" class="cls-4" d="m121.39,113.86c-1.63-1.01-3.64-1.52-6.05-1.52s-4.22.51-5.73,1.52c-1.52,1.01-2.28,2.32-2.28,3.91v64.68c0,1.38.79,2.66,2.35,3.83,1.57,1.17,3.46,1.76,5.65,1.76s4.29-.58,5.97-1.76c1.67-1.17,2.51-2.45,2.51-3.83v-64.68c0-1.6-.81-2.9-2.43-3.91"/>
        <path id="Fill-5-Copy" class="cls-5" d="m173.51,112.35c-4.92,0-9.24,1.18-12.95,3.55-3.72,2.37-6.42,5.27-8.09,8.72v-5.82c0-1.62-.71-2.93-2.12-3.96-1.42-1.02-3.17-1.53-5.26-1.53-2.41,0-4.37.51-5.89,1.52-1.52,1.01-2.28,2.32-2.28,3.91v64.68c0,1.38.79,2.66,2.36,3.83,1.57,1.17,3.51,1.76,5.81,1.76s4.13-.58,5.81-1.75c1.67-1.17,2.51-2.44,2.51-3.82v-39.5c0-4.99,1.52-9,4.55-12.02,3.03-3.03,6.54-4.54,10.52-4.54,4.29,0,8.01,1.7,11.15,5.1,3.14,3.4,4.71,7.22,4.71,11.47v39.5c0,1.7.83,3.06,2.51,4.06,1.68,1.01,3.56,1.51,5.65,1.51,2.3,0,4.26-.5,5.89-1.52,1.62-1.01,2.44-2.37,2.44-4.07v-39.6c0-8.62-2.7-16.02-8.09-22.2-5.39-6.17-11.8-9.26-19.23-9.26"/>
        <path id="Fill-27-Copy" class="cls-3" d="m117.53,80.05c-.79-.2-1.61-.32-2.47-.32-4.14,0-7.7,2.51-9.29,6.12-.58,1.3-.91,2.74-.91,4.26,0,5.73,4.57,10.38,10.2,10.38s10.2-4.65,10.2-10.38c0-4.86-3.3-8.93-7.73-10.06"/>
      </g>
      <path class="cls-1" d="m250,6v244H6V6h244m6-6H0v256h256V0h0Z"/>
    </g>
  </g>
</svg>