<?xml version="1.0" encoding="utf-8"?>
<!-- Generator: Adobe Illustrator 25.4.1, SVG Export Plug-In . SVG Version: 6.00 Build 0)  -->
<svg version="1.1" id="Layer_1" xmlns="http://www.w3.org/2000/svg" xmlns:xlink="http://www.w3.org/1999/xlink" x="0px" y="0px"
	 viewBox="0 0 22 22" style="enable-background:new 0 0 22 22;" xml:space="preserve">
<style type="text/css">
	.st0{fill:#242748;}
</style>
<path class="st0" d="M11,0.4C5.2,0.4,0.4,5.2,0.4,11S5.2,21.6,11,21.6S21.6,16.8,21.6,11S16.8,0.4,11,0.4z M11,2.7
	c3.9,0,7.2,2.7,8.1,6.4c-0.8-0.6-1.9-1.2-3.1-1.3c-2-0.2-3.9,0.6-5.7,2.6C9.1,11.5,8,12,6.8,11.9c-1.8-0.2-3.2-1.8-3.9-2.7
	C3.7,5.5,7,2.7,11,2.7z M11,19.3c-4.3,0-7.8-3.2-8.3-7.4c1,0.9,2.3,1.7,3.9,1.9c0.2,0,0.4,0,0.6,0c1.6,0,3.1-0.7,4.6-2.2
	c1.4-1.4,2.8-2.1,4.1-2c1.6,0.2,2.9,1.6,3.5,2.3C18.7,16.1,15.2,19.3,11,19.3z"/>
</svg>
